<svg width="106" height="107" viewBox="0 0 106 107" fill="none" xmlns="http://www.w3.org/2000/svg">
<path d="M17.5407 18.2056C17.5407 18.2056 18.8308 16.2756 19.3658 15.4206C19.9008 14.5656 17.9807 12.5456 17.2358 11.9056C16.4907 11.2656 15.3158 11.5856 15.3158 11.5856C5.94075 15.7406 1.25075 24.2656 0.610772 25.9706C-0.0292609 27.6756 2.24078 29.5356 3.91576 30.4456C4.68576 30.8656 5.91076 29.9356 6.66577 29.2456L6.92075 28.9856L7.31578 28.5856L7.32074 28.5806L32.8258 53.9858L36.3108 50.5003L42.7158 44.0954L17.5057 18.2406L17.5407 18.2056Z" fill="white"/>
<path d="M77.7947 45.0048L79.1398 43.725L91.2247 55.695C91.3099 55.7703 91.3997 55.8 91.4797 55.8C91.7101 55.8 91.8997 55.59 91.8997 55.59C91.8997 55.59 105.28 42.3151 105.325 42.2702C105.72 41.8799 105.325 41.6653 105.325 41.6653L95.0047 31.275L94.9896 31.29L93.575 29.905L94.3648 29.145L96.0547 29.34L95.7351 27.1L96.1597 26.67L95.5251 23.44C93.3201 20.315 87.2797 15.31 87.2797 15.31L84.1197 14.74L83.8001 15.165L81.4201 14.81L81.6499 16.84L81.7998 16.99L81.0946 17.7L77.195 13.885C77.195 13.885 54.5646 1.59497 53.36 1.025C52.6798 0.709999 52.1799 0.5 51.6998 0.5C51.33 0.5 50.9701 0.625008 50.5547 0.92C49.5946 1.59498 50.1598 2.95502 50.1598 2.95502L64.2298 28.955L67.045 31.745L66.1647 32.625L65.8398 32.95L63.5899 32.64L63.9347 34.87L63.2848 35.52L63.1699 35.405C63.0649 35.3 62.9197 35.245 62.7797 35.245C62.6397 35.245 62.4997 35.3 62.39 35.405C62.1747 35.62 62.1747 35.97 62.39 36.185L62.5049 36.3L62.1946 36.615L62.1147 36.53C62.005 36.425 61.865 36.37 61.725 36.37C61.5797 36.37 61.4397 36.425 61.3347 36.53C61.1201 36.745 61.1201 37.095 61.3347 37.31L61.4199 37.395L55.4997 43.3453L55.3649 43.2099C55.2547 43.1049 55.1147 43.0501 54.9747 43.0501C54.8347 43.0501 54.6947 43.1049 54.585 43.2099C54.3697 43.4252 54.3697 43.7752 54.585 43.9898L54.725 44.1252L54.41 44.4402L54.305 44.3398C54.2 44.2302 54.0547 44.1747 53.92 44.1747C53.7747 44.1747 53.6347 44.2302 53.5251 44.3398C53.3151 44.5551 53.3151 44.8998 53.5251 45.1151L53.6301 45.2201L52.8601 46L52.7551 46.9899L53.1599 47.4053L53.15 47.4099L52.66 47.9098L20.7148 79.8502L20.2998 79.5049L18.9748 79.6951L18.2248 80.4552L18.1748 80.405C18.0648 80.2948 17.9248 80.2399 17.7848 80.2399C17.6448 80.2399 17.4998 80.2948 17.3948 80.405C17.1798 80.6203 17.1798 80.965 17.3948 81.1803L17.4548 81.2398L17.1448 81.56L17.1148 81.5303C17.0098 81.42 16.8648 81.3652 16.7248 81.3652C16.5848 81.3652 16.4448 81.42 16.3348 81.5303C16.1248 81.7449 16.1248 82.0903 16.3348 82.3049L16.3698 82.3452L10.5248 88.2899L10.4048 88.1698C10.2948 88.0601 10.1598 88.0099 10.0148 88.0099C9.87482 88.0099 9.73482 88.0601 9.6248 88.1698C9.40979 88.385 9.40979 88.735 9.6248 88.9503L9.75477 89.0751L9.44479 89.3901L9.34982 89.295C9.2398 89.19 9.0998 89.1352 8.95479 89.1352C8.8198 89.1352 8.67479 89.19 8.56979 89.295C8.35477 89.5103 8.35477 89.8602 8.56979 90.0749L8.66977 90.1799L8.23478 90.625L5.96981 90.2202L6.1398 92.7501L5.4248 93.4798L6.04477 96.89C6.04477 96.89 6.99479 99.8597 8.94977 101.83C10.8448 103.74 13.7348 104.655 13.8598 104.75L17.1248 105.32L17.9298 104.53L20.1798 104.895L19.8098 102.67L20.4948 102L20.8098 102.315C20.9148 102.42 21.0548 102.475 21.1948 102.475C21.3348 102.475 21.4798 102.42 21.5848 102.315C21.7998 102.095 21.7998 101.75 21.5848 101.535L21.2748 101.225L21.5948 100.915L21.8648 101.185C21.9698 101.295 22.1148 101.35 22.2548 101.35C22.3948 101.35 22.5348 101.295 22.6448 101.185C22.8598 100.97 22.8598 100.625 22.6448 100.41L22.3798 100.14L28.3148 94.2848L28.5748 94.545C28.6798 94.6553 28.8248 94.7048 28.9648 94.7048C29.1048 94.7048 29.2448 94.6553 29.3548 94.545C29.5648 94.3298 29.5648 93.9798 29.3548 93.7651L29.0998 93.5148L29.4148 93.1998L29.6348 93.4198C29.7398 93.5248 29.8798 93.5802 30.0198 93.5802C30.1648 93.5802 30.3048 93.5248 30.4098 93.4198C30.6248 93.2051 30.6248 92.8551 30.4098 92.6398L30.1948 92.4252L30.8598 91.7748L31.0998 90.3503L30.7448 89.995L30.7498 89.9898L31.3948 89.3498L63.125 57.6101L63.1098 57.5798L63.7299 58.2203L64.7251 58.11L65.6199 57.2099L65.7646 57.3552C65.8748 57.4602 66.0148 57.515 66.1548 57.515C66.2948 57.515 66.4401 57.4602 66.5451 57.3552C66.7597 57.1399 66.7597 56.7899 66.5451 56.5753L66.3998 56.43L66.7148 56.1202L66.8251 56.2299C66.9301 56.3349 67.0701 56.3898 67.2147 56.3898C67.3547 56.3898 67.4947 56.3349 67.5997 56.2299C67.815 56.0153 67.815 55.6653 67.5997 55.45L67.4901 55.3351L73.4197 49.395L73.5748 49.5502C73.6798 49.6552 73.8198 49.71 73.9598 49.71C74.1051 49.71 74.2451 49.6552 74.3501 49.5502C74.5647 49.3349 74.5647 48.9849 74.3501 48.7703L74.1949 48.6151L74.5099 48.3001L74.6301 48.4249C74.7397 48.5299 74.8797 48.5848 75.0197 48.5848C75.1597 48.5848 75.2997 48.5299 75.41 48.4249C75.6247 48.205 75.6247 47.8602 75.41 47.645L75.2898 47.5202L75.9496 46.8598L78.1546 47.2052L77.7947 45.0048Z" fill="white"/>
<path d="M82.1998 80.8793L68.135 70.2195L65.6302 67.6394L55.9253 77.3443L58.3654 79.6747L67.5301 93.4192L79.8898 106.954L94.1354 93.6642L82.1998 80.8793Z" fill="white"/>
</svg>
