<svg width="301" height="199" viewBox="0 0 301 199" fill="none" xmlns="http://www.w3.org/2000/svg">
<path d="M39.9998 145.171C29.536 145.171 19.5722 145.171 9.33936 145.171C9.33936 104.837 9.33936 64.801 9.33936 24.164C12.5235 24.164 15.6343 24.131 18.7441 24.17C34.8813 24.373 51.0869 23.732 67.1409 24.999C95.8699 27.268 114.835 47.232 116.877 76.013C117.67 87.196 117.143 98.28 112.947 108.913C111.888 111.598 110.526 112.91 107.262 113.154C95.4178 114.039 85.9039 123.64 85.0049 135.531C84.7679 138.66 83.3439 139.831 80.8659 140.84C71.0909 144.821 60.8559 145.399 50.4889 145.182C47.1609 145.113 43.8299 145.171 39.9998 145.171ZM83.8008 101.055C86.7408 92.704 87.3099 84.112 85.9009 75.45C84.3029 65.623 80.0489 57.301 70.4889 53.007C60.0719 48.33 49.0499 50.498 38.4168 50.095C38.4168 73.599 38.4168 96.347 38.4168 119.174C44.7529 119.174 50.7469 119.263 56.7369 119.156C69.2469 118.932 78.3049 113.307 83.8008 101.055Z" fill="#FDFDFD"/>
<path d="M287.965 156.019C282.795 171.613 271.172 180.671 256.168 184.858C227.07 192.979 201.058 186.318 178.52 166.191C178.17 165.879 177.944 165.428 177.418 164.711C178.684 163.243 179.953 161.77 181.951 160.177C218.036 165.541 253.278 168.02 287.965 156.019Z" fill="#B55BFD"/>
<path d="M155.823 162.127C148.734 176.737 136.895 184.961 121.062 187.384C101.602 190.361 84.6779 185.589 71.9259 169.809C69.2869 166.544 67.5329 162.564 65.4219 158.999C73.5479 156.639 80.8549 154.517 88.6849 152.243C93.3349 158.42 99.7969 162.698 109.03 163.618C114.226 164.272 118.716 165.174 123.138 164.913C134.05 164.269 144.93 163.091 155.823 162.127Z" fill="#B55BFD"/>
<path d="M205.466 104.962C192.188 97.4571 185.267 85.9841 184.698 70.4531C194.432 70.6931 203.655 71.3461 212.878 71.9991C216.345 80.2641 223.813 83.6031 231.291 86.8921C243.702 92.3521 256.136 97.7591 268.361 103.56C254.838 107.539 241.408 110.084 227.507 108.067C220.164 107.002 212.813 105.995 205.466 104.962Z" fill="#FCDA5C"/>
<path d="M194.543 41.79C204.591 30.062 217.945 25.214 232.785 24.349C253.164 23.16 270.789 29.9681 285.851 44.1151C284.772 45.5501 283.9 46.708 282.234 47.986C268.871 47.709 256.267 47.761 243.741 46.804C227.31 45.549 210.939 43.498 194.543 41.79Z" fill="#FC5B5B"/>
<path d="M205.686 105.263C212.813 105.995 220.164 107.002 227.507 108.067C241.408 110.084 254.838 107.539 268.546 103.839C279.775 109.459 286.748 118.205 289.259 130.568C279.644 132.705 270.391 134.436 261.138 136.167C258.253 130.557 253.395 127.238 247.836 124.754C235.305 119.157 222.76 113.591 210.239 107.972C208.737 107.298 207.348 106.373 205.686 105.263Z" fill="#5CFC9C"/>
<path d="M194.28 41.98C210.939 43.498 227.31 45.549 243.741 46.804C256.267 47.761 268.871 47.709 281.934 48.163C278.882 52.795 275.337 57.369 271.594 62.199C263.922 55.96 255.902 50.709 246.281 49.647C239.792 48.931 232.926 48.914 226.58 50.25C216.057 52.466 211.766 59.844 212.892 71.546C203.655 71.346 194.432 70.693 184.762 70.048C183.766 59.444 187.247 50.235 194.28 41.98Z" fill="#F39153"/>
<path d="M261.172 136.566C270.391 134.436 279.644 132.705 289.277 130.928C291.653 139.181 291.185 147.356 288.195 155.718C253.278 168.02 218.036 165.541 182.247 160.013C185.548 155.345 189.28 150.722 193.169 145.903C202.246 153.659 211.844 159.652 223.242 162.327C231.143 164.181 238.992 164.364 246.852 162.131C259.176 158.628 264.473 149.37 261.172 136.566Z" fill="#5C6BFB"/>
<path d="M156.047 161.83C144.93 163.091 134.05 164.269 123.138 164.913C118.716 165.174 114.226 164.272 109.438 163.745C126.199 161.374 134.57 152.81 135.494 136.604C144.697 134.363 153.432 132.592 162.167 130.822C162.984 141.592 161.11 151.847 156.047 161.83Z" fill="#5C6BFB"/>
<path d="M135.15 60.062C135.15 48.274 135.15 36.486 135.15 24.417C144.196 24.417 152.963 24.417 162.504 24.417C162.504 32.621 162.504 40.867 162.035 49.582C152.762 53.388 143.956 56.725 135.15 60.062Z" fill="#F35B59"/>
<path d="M162.273 130.377C153.432 132.592 144.697 134.363 135.56 136.189C135.113 125.492 135.068 114.739 135.524 103.507C144.738 102.215 153.451 101.402 162.164 100.59C162.235 110.371 162.307 120.152 162.273 130.377Z" fill="#5DFE9D"/>
<path d="M106.776 122.606C117.453 121.44 125.486 128.019 125.837 137.783C126.153 146.565 118.77 154.054 109.843 154.007C100.732 153.959 93.4561 146.206 94.0221 137.149C94.4631 130.102 98.8081 125.031 106.776 122.606Z" fill="#FBFBFB"/>
<path d="M162.286 100.171C153.451 101.402 144.738 102.215 135.594 103.047C135.12 94.7189 135.078 86.3719 135.543 77.5499C138.808 76.7529 141.582 76.5329 144.319 76.0899C150.288 75.1239 156.239 74.0459 162.197 73.0139C162.267 81.9259 162.338 90.8389 162.286 100.171Z" fill="#FCDA5C"/>
<path d="M162.346 72.6371C156.239 74.0461 150.288 75.1241 144.319 76.0901C141.582 76.5331 138.808 76.7531 135.616 77.0931C135.128 71.7331 135.073 66.3551 135.085 60.5201C143.956 56.7251 152.762 53.3881 161.891 50.0271C162.308 57.4231 162.402 64.8421 162.346 72.6371Z" fill="#F39153"/>
</svg>
