<svg width="740" height="737" viewBox="0 0 740 737" fill="none" xmlns="http://www.w3.org/2000/svg">
<path d="M388.462 608.539C377.692 607 366.923 605.462 356.154 603.923C345.385 602.385 334.616 599.308 323.846 594.692C317.692 593.154 310 594.692 305.385 599.308L297.692 607C253.077 651.615 180.769 656.231 134.616 616.231C82.3079 571.615 80.7694 491.615 128.462 443.923L245.385 327C260.769 311.615 279.231 302.385 297.692 296.231C322.308 290.077 348.462 291.615 371.539 300.846C385.385 307 399.231 314.692 411.539 327C417.692 333.154 422.308 339.308 426.923 347C433.077 357.769 446.923 359.308 454.616 350.077C468.462 336.231 486.923 317.769 497.692 307C503.846 300.846 503.846 291.615 499.231 283.923C493.077 274.692 485.385 267 477.692 259.308C466.923 248.539 454.616 237.769 440.769 230.077C419.231 216.231 394.616 207 368.462 202.385C320.769 193.154 268.462 200.846 225.385 223.923C208.462 233.154 191.539 245.462 177.692 259.308L65.3848 371.615C-16.1537 453.154 -22.3075 585.462 56.154 668.539C137.692 757.769 276.154 759.308 360.769 674.692L399.231 636.231C410 628.539 402.308 610.077 388.462 608.539Z" fill="white"/>
<path d="M671.538 56.2308C586.923 -22.2307 454.615 -16.0769 374.615 65.4616L339.231 99.3077C328.462 110.077 336.154 128.539 350 130.077C371.539 131.615 393.077 136.231 414.615 142.385C420.769 143.923 428.462 142.385 433.077 137.769L440.769 130.077C485.385 85.4616 557.692 80.8462 603.846 120.846C656.154 165.462 657.692 245.462 610 293.154L493.077 410.077C477.692 425.462 459.231 434.692 440.769 440.846C416.154 447 390 445.462 366.923 436.231C353.077 430.077 339.231 422.385 326.923 410.077C320.769 403.923 316.154 397.769 311.539 390.077C305.385 379.308 291.539 377.769 283.846 387L240.769 430.077C234.615 436.231 234.615 445.462 239.231 453.154C245.385 462.385 253.077 470.077 260.769 477.769C271.539 488.538 285.385 499.308 297.692 507C319.231 520.846 343.846 530.077 368.462 534.692C416.154 543.923 468.462 536.231 511.539 513.154C528.462 503.923 545.385 491.615 559.231 477.769L676.154 360.846C762.308 276.231 759.231 137.769 671.538 56.2308Z" fill="white"/>
</svg>
