<svg width="100" height="100" viewBox="0 0 100 100" fill="none" xmlns="http://www.w3.org/2000/svg">
<path d="M58.8708 20.3454L79.6546 41.1292C80.0764 41.5546 80.5783 41.8922 81.1313 42.1225C81.6843 42.3529 82.2774 42.4715 82.8765 42.4715C83.4756 42.4715 84.0687 42.3529 84.6217 42.1225C85.1747 41.8922 85.6766 41.5546 86.0984 41.1292L92.3608 34.8669C94.0512 33.1664 95 30.8661 95 28.4684C95 26.0706 94.0512 23.7703 92.3608 22.0699L77.9301 7.6392C76.2296 5.94881 73.9293 5 71.5316 5C69.1339 5 66.8336 5.94881 65.1331 7.6392L58.8708 13.9016C58.4454 14.3234 58.1078 14.8253 57.8774 15.3783C57.6471 15.9313 57.5284 16.5244 57.5284 17.1235C57.5284 17.7226 57.6471 18.3157 57.8774 18.8687C58.1078 19.4217 58.4454 19.9236 58.8708 20.3454ZM5.09611 87.0532L8.40881 67.9031C8.88154 65.1378 10.197 62.5861 12.1753 60.597L47.8889 24.8834C48.3108 24.4581 48.8127 24.1205 49.3657 23.8901C49.9187 23.6597 50.5118 23.5411 51.1109 23.5411C51.7099 23.5411 52.3031 23.6597 52.8561 23.8901C53.4091 24.1205 53.911 24.4581 54.3328 24.8834L75.1166 45.6672C75.5419 46.089 75.8795 46.5909 76.1099 47.1439C76.3403 47.6969 76.4589 48.2901 76.4589 48.8891C76.4589 49.4882 76.3403 50.0813 76.1099 50.6343C75.8795 51.1873 75.5419 51.6892 75.1166 52.1111L39.403 87.8247C37.426 89.7948 34.8914 91.1096 32.1423 91.5912L12.9468 94.9039C11.8751 95.0859 10.7753 95.0086 9.73964 94.6785C8.70394 94.3483 7.76236 93.775 6.9937 93.0063C6.22504 92.2376 5.65165 91.2961 5.32151 90.2604C4.99137 89.2246 4.91408 88.1249 5.09611 87.0532Z" fill="white"/>
</svg>
