<svg width="100" height="100" viewBox="0 0 100 100" fill="none" xmlns="http://www.w3.org/2000/svg">
<path d="M39.7693 65.4764V35.5337L65.9054 50.5067L39.7693 65.4764ZM97.9028 26.108C96.7226 21.7394 93.3885 18.3613 89.1508 17.1659L89.0608 17.1457C78.415 15.7824 66.1021 15.0034 53.6058 15.0034C52.3355 15.0034 51.0686 15.0101 49.805 15.0269L49.9983 15.0235C48.9247 15.0101 47.6611 15 46.3908 15C33.8946 15 21.575 15.779 9.48221 17.2867L10.9292 17.139C6.60487 18.3579 3.27076 21.7326 2.11383 26.014L2.09382 26.1013C0.760177 33.1832 0 41.3329 0 49.6605C0 49.956 1.55664e-07 50.2515 0.00333427 50.5437V50.4966C0.00333427 50.7451 0 51.0406 0 51.3361C0 59.6638 0.763512 67.8101 2.22052 75.7113L2.09382 74.892C3.2741 79.2606 6.60821 82.6387 10.8459 83.8341L10.9359 83.8543C21.5817 85.2176 33.8946 85.9966 46.3908 85.9966C47.6578 85.9966 48.9247 85.9899 50.1917 85.9731L49.9983 85.9765C51.0719 85.9899 52.3389 86 53.6058 86C66.1054 86 78.4216 85.221 90.5145 83.7133L89.0675 83.861C93.3951 82.6454 96.7292 79.2674 97.8895 74.986L97.9095 74.8987C99.2398 67.8168 100 59.6671 100 51.3428C100 51.0473 100 50.7518 99.9967 50.4597V50.5034C99.9967 50.2549 100 49.9594 100 49.6639C100 41.3362 99.2365 33.1899 97.7795 25.2887L97.9028 26.108Z" fill="white"/>
</svg>
